<svg width="500" height="500" viewBox="0 0 500 500" fill="none" xmlns="http://www.w3.org/2000/svg">
<path d="M104.58 357.62C110.48 354.57 117.44 354.17 124 355.26C127.52 355.84 131.19 356.89 133.59 359.54C135.99 362.19 136.44 366.84 133.69 369.12C132.05 370.47 129.77 370.68 127.64 370.65C122.51 370.59 116.81 369.65 112.71 372.78C110.37 374.54 108.81 377.47 106.01 378.34C103.21 379.21 100.19 377.57 98.7399 375.1C97.4034 372.529 97.1063 369.544 97.9099 366.76C98.2418 364.825 99.0166 362.994 100.174 361.408C101.331 359.823 102.839 358.526 104.58 357.62Z" fill="#EBEBEB"/>
<path d="M91 331.49C94.61 336.65 101.63 334.94 104.89 331.79C108.15 328.64 109.52 324.08 110.77 319.72C113.63 309.78 116.52 299.35 114.39 289.22C113.88 286.151 112.534 283.283 110.5 280.93C108.37 278.68 105.1 277.34 102.11 278.13C98.57 279.07 96.37 282.54 94.78 285.83C90.1136 295.561 87.6713 306.208 87.63 317C87.63 322 88.21 327.3 91.04 331.45" fill="#EBEBEB"/>
<path d="M81.12 338.89C85.04 334.24 85.79 327.45 84.04 321.61C82.29 315.77 78.35 310.82 73.81 306.77C68.4595 302.026 62.2372 298.368 55.49 296C52.8765 294.944 50.0655 294.467 47.25 294.6C45.8428 294.683 44.4772 295.108 43.2714 295.838C42.0656 296.569 41.0559 297.582 40.33 298.79C38.4 302.46 40.25 306.92 42.25 310.56C45.7609 316.977 49.7734 323.106 54.25 328.89C57.85 333.54 61.99 338.13 67.48 340.23C72.97 342.33 78.69 342.08 81.6 338.23" fill="#EBEBEB"/>
<path d="M90.8 409.32C90.9798 408.548 91.087 407.762 91.12 406.97C91.29 405.26 91.5 403.12 91.75 400.57C92.0642 397.42 92.5449 394.289 93.19 391.19C94.0265 387.411 95.1669 383.705 96.6 380.11C98.002 376.527 99.9042 373.16 102.25 370.11C104.16 367.621 106.603 365.591 109.4 364.17C111.287 363.228 113.313 362.593 115.4 362.29C116.19 362.264 116.975 362.15 117.74 361.95C116.949 361.865 116.151 361.865 115.36 361.95C113.186 362.112 111.059 362.664 109.08 363.58C106.136 364.969 103.554 367.023 101.54 369.58C99.0919 372.678 97.117 376.122 95.68 379.8C94.2316 383.428 93.1039 387.175 92.31 391C91.7062 394.139 91.2888 397.311 91.06 400.5C90.86 403.22 90.78 405.42 90.75 406.94C90.6742 407.733 90.6909 408.531 90.8 409.32Z" fill="#E0E0E0"/>
<path d="M91.24 404.39C91.2991 404.03 91.3192 403.664 91.3 403.3C91.3 402.49 91.3 401.46 91.3 400.19C91.3 397.49 91.3 393.59 91.44 388.76C91.68 379.11 92.51 368.76 94.11 354.09C95.63 340.33 97.67 324.3 99.83 313.89C100.29 311.52 100.75 309.39 101.19 307.52C101.63 305.65 101.96 304.04 102.31 302.73C102.66 301.42 102.84 300.5 103.03 299.73C103.142 299.384 103.206 299.024 103.22 298.66C103.058 298.978 102.934 299.313 102.85 299.66L101.94 302.66C101.54 303.95 101.13 305.55 100.66 307.42C100.19 309.29 99.66 311.42 99.16 313.77C96.4946 326.087 94.4917 338.538 93.16 351.07C91.55 365.74 90.83 379.07 90.77 388.77C90.71 393.61 90.77 397.52 90.94 400.22C91.01 401.49 91.08 402.52 91.13 403.33C91.1192 403.687 91.1562 404.043 91.24 404.39Z" fill="#E0E0E0"/>
<path d="M91.2999 378.63C91.3893 377.548 91.3893 376.461 91.2999 375.38C91.1799 373.29 90.8899 370.27 90.2999 366.58C89.5922 362.252 88.6373 357.969 87.44 353.75C86.0436 348.56 84.2517 343.486 82.0799 338.57C78.3518 329.492 73.005 321.166 66.2999 314C65.1428 312.774 63.9068 311.625 62.6 310.56C62.03 310.08 61.5299 309.56 61.0199 309.22L59.5799 308.22C58.7188 307.559 57.8021 306.973 56.84 306.47C56.69 306.68 60.72 309.05 65.84 314.47C72.3139 321.711 77.499 330.007 81.17 339C83.3016 343.873 85.1023 348.885 86.56 354C87.97 358.72 88.8999 363.05 89.6099 366.7C90.3199 370.35 90.67 373.35 90.9 375.42C90.9588 376.498 91.0924 377.571 91.2999 378.63Z" fill="#E0E0E0"/>
<path d="M66.4 424.07L68.98 459.44H114.42L117 424.07H66.4Z" fill="#E0E0E0"/>
<path d="M62.0102 410.14H122.42V424.08H62.0102V410.14Z" fill="#E0E0E0"/>
<path d="M62.0102 458.09V461.95H64.8502H121.42V458.09H62.0102Z" fill="#EBEBEB"/>
<path d="M67.63 468.75L64.85 461.95H119.26L116.01 468.75H67.63Z" fill="#E0E0E0"/>
<path d="M116.16 435.63C116.099 435.748 116.025 435.858 115.94 435.96L115.26 436.86L112.62 440.25L112.5 440.4L112.39 440.24L105.88 431.24H106.26L99.8601 440.3L99.6501 440.59L99.4301 440.32L91.8401 431.32H92.2802C92.1402 431.48 92.0001 431.66 91.8601 431.84C89.5001 434.84 87.2202 437.65 85.0702 440.36L84.8401 440.64L84.6302 440.34C82.3302 437.08 80.1702 434.04 78.2302 431.28H78.6002C75.4402 434.87 72.7701 437.93 70.7101 440.28L70.5702 440.44L70.4702 440.26C69.4702 438.51 68.6001 437.12 67.9901 436.11L67.3601 435C67.2818 434.878 67.2181 434.747 67.1702 434.61C67.2718 434.715 67.3591 434.832 67.4301 434.96L68.1302 436.02L70.7302 440.1H70.4802L78.2401 431L78.4402 430.77L78.6101 431.02L85.0801 440.02H84.6402L91.4202 431.49L91.8301 430.97L92.0501 430.7L92.2701 430.96L99.8401 440H99.4202L105.88 431L106.07 430.74L106.26 431L112.62 440.09H112.39L115.15 436.79L115.88 435.94C115.958 435.824 116.053 435.719 116.16 435.63Z" fill="#F5F5F5"/>
<path d="M117.63 423.84C117.63 424 106.25 424.12 92.2101 424.12C78.1701 424.12 66.7801 424 66.7801 423.84C66.7801 423.68 78.1601 423.56 92.2101 423.56C106.26 423.56 117.63 423.69 117.63 423.84Z" fill="#F5F5F5"/>
<path d="M119.93 462.33C119.93 462.49 107.55 462.62 92.2902 462.62C77.0302 462.62 64.6602 462.49 64.6602 462.33C64.6602 462.17 77.0302 462.05 92.2902 462.05C107.55 462.05 119.93 462.18 119.93 462.33Z" fill="#F5F5F5"/>
<path d="M420.77 113.71H468.81V208.93H420.77V113.71Z" fill="#EBEBEB"/>
<path d="M367.02 113.71H418.92V208.93H367.02V113.71Z" fill="#EBEBEB"/>
<path d="M367.02 215.58H418.92V307.58H367.02V215.58Z" fill="#EBEBEB"/>
<path d="M360.37 112.06H305.71V27.59H303.86V112.06H259.38V25.72H360.37V112.06Z" fill="#EBEBEB"/>
<path d="M259.38 113.71H303.86V208.93H259.38V113.71Z" fill="#EBEBEB"/>
<path d="M259.38 215.58H303.86V307.58H259.38V215.58Z" fill="#EBEBEB"/>
<path d="M420.77 215.58H468.81V307.58H420.77V215.58Z" fill="#EBEBEB"/>
<path d="M305.71 215.58H360.37V307.58H305.71V215.58Z" fill="#EBEBEB"/>
<path d="M420.77 309.23H468.81V392.14H420.77V309.23Z" fill="#EBEBEB"/>
<path d="M259.38 309.23H303.86V392.14H259.38V309.23Z" fill="#EBEBEB"/>
<path d="M420.77 112.06V27.59H418.92V112.06H367.02V25.72H468.81V112.06H420.77Z" fill="#EBEBEB"/>
<path d="M305.71 309.23H360.37V392.14H305.71V309.23Z" fill="#EBEBEB"/>
<path d="M367.02 309.23H418.92V392.14H367.02V309.23Z" fill="#EBEBEB"/>
<path d="M305.71 113.71H360.37V208.93H305.71V113.71Z" fill="#EBEBEB"/>
<path d="M61.84 29.98H174.29V147.2H61.84V29.98Z" fill="#E0E0E0"/>
<path d="M69.4601 29.98H181.91V147.2H69.4601V29.98Z" fill="#EBEBEB"/>
<path d="M84.57 45.73H166.79V131.44H84.57V45.73Z" fill="white"/>
<path d="M166.79 132C167.403 132.839 168.093 133.619 168.85 134.33C170.17 135.71 172.02 137.58 174.08 139.62C176.14 141.66 178.08 143.47 179.45 144.77C180.16 145.514 180.944 146.184 181.79 146.77C181.206 145.929 180.536 145.152 179.79 144.45C178.47 143.07 176.62 141.19 174.54 139.15C172.46 137.11 170.54 135.28 169.17 133.99C168.453 133.241 167.655 132.573 166.79 132Z" fill="#E0E0E0"/>
<path d="M84.5701 131.8C83.729 132.388 82.9485 133.058 82.2401 133.8C80.8601 135.12 78.9901 136.97 76.9601 139.04C74.9301 141.11 73.1 143.04 71.8 144.4C71.0604 145.118 70.3908 145.905 69.8 146.75C70.6431 146.165 71.4239 145.495 72.1301 144.75C73.5001 143.43 75.3801 141.57 77.4201 139.5C79.4601 137.43 81.29 135.5 82.58 134.13C83.3208 133.423 83.9876 132.642 84.5701 131.8Z" fill="#E0E0E0"/>
<path d="M84.8 46C84.1869 45.1613 83.4972 44.3813 82.7401 43.67C81.4201 42.29 79.5701 40.42 77.5001 38.39C75.4301 36.36 73.5001 34.53 72.1401 33.23C71.4245 32.4875 70.6374 31.8176 69.7901 31.23C70.3768 32.0688 71.0468 32.8461 71.7901 33.55C73.1101 34.93 74.9601 36.81 77.0401 38.85C79.1201 40.89 81.0401 42.72 82.4101 44.01C83.1304 44.76 83.9319 45.4275 84.8 46Z" fill="#E0E0E0"/>
<path d="M167 46.17C167.843 45.5665 168.624 44.8797 169.33 44.12C170.7 42.8 172.57 40.95 174.61 38.88C176.65 36.81 178.47 34.88 179.77 33.52C180.512 32.8042 181.182 32.0171 181.77 31.17C180.931 31.757 180.154 32.4271 179.45 33.17C178.07 34.49 176.2 36.35 174.16 38.42C172.12 40.49 170.29 42.42 169 43.79C168.253 44.5123 167.583 45.3099 167 46.17Z" fill="#E0E0E0"/>
<path d="M84.8 131.44C84.8 131.44 84.8 131.29 84.8 131.03C84.8 130.77 84.8 130.35 84.8 129.83C84.8 128.77 84.8 127.22 84.8 125.21C84.8 121.21 84.8 115.21 84.87 107.75C84.87 92.75 84.95 71.35 85.01 45.75L84.74 46.02H166.74L166.43 45.71C166.43 77.17 166.43 106.6 166.43 131.42L166.69 131.15L107.31 131.29L90.64 131.36H86.23H85.09H84.7H85.06H86.17H90.53L107.14 131.43L166.69 131.56H166.96V131.3C166.96 106.48 166.96 77.05 166.96 45.59V45.28H166.64H84.64H84.37V45.55C84.42 71.24 84.47 92.69 84.5 107.74C84.5 115.22 84.56 121.1 84.58 125.14C84.58 127.14 84.58 128.66 84.58 129.71C84.58 130.21 84.58 130.6 84.58 130.88C84.58 131.16 84.8 131.44 84.8 131.44Z" fill="#E0E0E0"/>
<path d="M145.09 81.54C145.09 81.54 146.85 102.76 123.87 102.76C123.87 91.43 133.21 82.49 145.09 81.54Z" fill="#EBEBEB"/>
<path d="M103 81.55C103 81.55 124.22 79.79 124.22 102.77C112.94 102.77 104 93.43 103 81.55Z" fill="#EBEBEB"/>
<path d="M124.89 69.9399C124.89 69.9399 142.23 85.4999 123.94 102.76C115.44 93.7499 116.16 79.6199 124.89 69.9399Z" fill="#E0E0E0"/>
<path d="M268.88 207.51C265.12 211.81 264.14 217.9 264.31 223.61C264.48 229.32 265.63 235 265.5 240.7C265.21 252.52 259.5 263.41 255.58 274.56C251.66 285.71 249.78 298.94 256.45 308.7C261.45 309.19 266.52 309.7 271.45 308.7C276.38 307.7 281.18 304.97 283.45 300.51C285.34 296.83 285.32 292.51 285.24 288.36C284.9 268.18 284.567 248.003 284.24 227.83" fill="#263238"/>
<path d="M392.2 135.8C387.64 143.04 392.71 152.61 399.03 158.38C405.35 164.15 413.33 168.88 416.44 176.84C421.64 190.13 410.78 205.97 416.61 218.99C419.78 226.08 427.51 231.12 428.22 238.85C428.59 242.85 426.91 246.77 426.55 250.79C425.7 260.35 432.22 268.79 437.41 276.79C442.6 284.79 446.64 295.73 441.19 303.64L369.58 301.75C367.806 301.864 366.032 301.52 364.43 300.75C361.19 298.8 361.07 294.23 361.34 290.46L368.21 194" fill="#263238"/>
<path d="M264.72 213.08C266.12 207.6 269.22 202.63 270.4 197.08C271.91 190.08 270.22 182.81 269.25 175.69C268.28 168.57 268.2 160.76 272.35 154.9C274.82 151.41 278.58 148.95 280.82 145.3C283.7 140.58 283.59 134.7 284.71 129.3C285.982 123.482 288.714 118.084 292.649 113.614C296.583 109.145 301.591 105.75 307.2 103.75L307.34 248.48L280.75 257.17C275.87 250.69 270.96 244.17 267.64 236.76C264.32 229.35 262.71 220.93 264.72 213.08Z" fill="#263238"/>
<path d="M306.39 102.65C309.84 97.46 314.08 92.59 319.58 89.65C325.08 86.71 331.99 85.87 337.58 88.65C342.97 91.37 346.39 96.99 351.66 99.94C357.08 102.94 363.66 102.78 369.66 104.34C376.026 106.127 381.682 109.842 385.851 114.974C390.019 120.106 392.496 126.403 392.94 133C393.41 142.32 389.79 152.26 393.82 160.68C397.72 168.81 408.09 173.68 408.75 182.68C409.36 191.06 400.93 197.68 400.11 206.02C399.11 216.67 410.51 225.43 409.8 236.1C409.15 245.99 398.41 252.76 397.13 262.58C395.99 271.32 402.69 280.35 399.44 288.58C397.69 293.01 393.44 295.86 389.86 299C386.28 302.14 382.86 306.56 383.86 311.24L282.65 289C288.88 269.33 295.14 248.24 289.38 228.43C287.3 221.28 283.72 214.64 281.59 207.49C279.13 199.21 278.69 190.49 278.98 181.81C279.53 165.46 282.66 149.29 286.83 133.47C290.01 121.39 295.06 108.03 306.62 103.27" fill="#263238"/>
<path d="M281 245.37C280.357 244.162 279.889 242.869 279.61 241.53C279.049 237.822 279.459 234.032 280.8 230.53C281.55 228.29 282.57 225.91 283.56 223.29C284.711 220.526 285.429 217.602 285.69 214.62C285.861 211.315 285.489 208.005 284.59 204.82C283.74 201.49 282.53 198.16 281.39 194.74C280.205 191.44 279.354 188.03 278.85 184.56C278.42 181.334 278.741 178.051 279.79 174.97C280.873 172.211 282.16 169.537 283.64 166.97C284.293 165.787 284.881 164.568 285.4 163.32C285.86 162.09 286.18 160.89 286.49 159.74C287.65 155.13 288.32 151.35 288.89 148.74C289.16 147.44 289.39 146.44 289.56 145.74C289.64 145.42 289.71 145.17 289.76 144.97C289.788 144.882 289.804 144.792 289.81 144.7C289.767 144.779 289.733 144.863 289.71 144.95C289.65 145.12 289.55 145.37 289.46 145.71C289.26 146.38 288.99 147.37 288.69 148.71C288.06 151.28 287.33 155.06 286.14 159.63C285.82 160.77 285.48 161.96 285.02 163.16C284.501 164.392 283.913 165.594 283.26 166.76C281.753 169.323 280.442 171.998 279.34 174.76C278.247 177.907 277.904 181.267 278.34 184.57C278.836 188.075 279.69 191.52 280.89 194.85C282.03 198.29 283.24 201.6 284.09 204.85C284.976 207.986 285.351 211.245 285.2 214.5C284.955 217.438 284.264 220.321 283.15 223.05C282.15 225.66 281.15 228.05 280.44 230.33C279.132 233.884 278.787 237.72 279.44 241.45C279.649 242.452 279.985 243.423 280.44 244.34C280.6 244.65 280.75 244.87 280.84 245.03C280.93 245.19 281 245.38 281 245.37Z" fill="#455A64"/>
<path d="M369.88 235.52L377.77 244.36C377.77 244.36 407.44 254.76 410.6 256.66C413.76 258.56 390.4 386.32 390.4 386.32C390.4 386.32 420.7 422.39 422.59 435.32C424.48 448.25 426.59 465.52 426.59 465.52L247 465.17L257.53 391.68L254.53 340.51L272.42 248.76L297.91 242.47L311.48 232.05L369.88 235.52Z" fill="#3A8EF6"/>
<path d="M426.59 465.55C426.59 465.38 424.5 448.15 422.59 435.36C422.15 432.36 420.19 427.99 416.75 422.23C414 417.63 410.31 412.16 405.75 405.99C398.14 395.62 390.65 386.68 390.37 386.35C390.51 385.59 396.31 353.83 401.66 322.24C408.88 279.53 411.88 257.47 410.56 256.67C407.45 254.8 378.3 244.57 377.73 244.37L369.84 235.53L311.47 232L297.9 242.41L272.4 248.71L254.52 340.45L257.52 391.63L246.99 465.14L426.59 465.55ZM369.87 235.55L377.76 244.38C378.06 244.49 407.47 254.81 410.58 256.68C411.87 257.46 408.78 280.11 401.66 322.2C396.27 354.01 390.43 386 390.37 386.32C390.44 386.41 398.03 395.46 405.75 405.97C410.29 412.14 413.98 417.61 416.75 422.21C420.19 427.95 422.15 432.37 422.58 435.31C424.41 447.87 426.44 464.69 426.58 465.48L247 465.14L257.52 391.68L254.52 340.51L272.4 248.78L297.88 242.49L311.45 232.08L369.87 235.55Z" fill="#263238"/>
<path d="M410.6 256.66C410.6 256.66 423.38 263 428.78 270.05C434.18 277.1 443 312.18 445.08 323.38C447.16 334.58 453.27 347.66 452 353.06L450.34 358.87C450.34 358.87 451.59 382.11 448.27 388.34C444.95 394.57 440.8 393.34 440.8 393.34C440.8 393.34 440.68 409.15 431.5 411.19C414.4 414.98 394.81 412.1 388.99 402.97C383.17 393.84 383.54 390 383.54 390L391.42 356.38L395.86 347.3L400.14 321.51L410.6 256.66Z" fill="#3A8EF6"/>
<path d="M272.42 248.76C272.42 248.76 264.56 250.95 252.59 265.58C240.62 280.21 211.69 316.46 211.69 316.46C211.69 316.46 195.09 309.06 189.69 309.89C186.497 304.517 181.815 300.185 176.21 297.42C167.97 293.25 159.21 296.51 159.21 296.51L147.92 321.93C146.04 326.69 143.26 337 145.92 341.38C149.43 347.19 156.92 356.75 167.7 352.15C167.7 352.15 202.84 384.01 215.25 387.84C230.74 392.63 255.25 384.68 261.76 349.36C268.27 314.04 272.42 248.76 272.42 248.76Z" fill="#3A8EF6"/>
<path d="M313.53 418C313.541 417.88 313.541 417.76 313.53 417.64C313.53 417.37 313.53 417.02 313.61 416.57C313.61 415.57 313.74 414.21 313.84 412.44C314.05 408.83 314.36 403.65 314.73 397.27C315.53 384.46 316.85 366.78 319.02 347.33C320.11 337.6 321.33 328.33 322.55 319.96C323.77 311.59 325.03 304.03 326.18 297.72C326.72 294.56 327.29 291.72 327.76 289.21C328.23 286.7 328.66 284.55 329.02 282.8L329.83 278.75C329.91 278.3 329.98 277.95 330.03 277.69C330.059 277.569 330.075 277.445 330.08 277.32C330.037 277.437 330.003 277.557 329.98 277.68C329.91 277.94 329.83 278.28 329.73 278.68C329.52 279.68 329.21 280.99 328.83 282.68C328.45 284.37 327.97 286.57 327.48 289.07C326.99 291.57 326.39 294.42 325.82 297.58C324.62 303.88 323.36 311.42 322.08 319.81C320.8 328.2 319.6 337.46 318.5 347.19C316.33 366.66 315.07 384.35 314.36 397.19C314.01 403.6 313.77 408.78 313.64 412.37C313.58 414.14 313.53 415.53 313.5 416.5C313.5 416.95 313.5 417.31 313.5 417.58C313.486 417.721 313.496 417.863 313.53 418Z" fill="#263238"/>
<g opacity="0.3">
<path d="M411.1 412.84C407.23 415.734 402.5 417.247 397.668 417.134C392.836 417.022 388.182 415.291 384.45 412.22C379.45 407.85 376.76 401.39 372.86 395.97C364.73 384.69 351.49 378.37 341.25 368.97C335.03 363.27 329.7 356.26 322.09 352.6C313.95 348.7 304.5 349.24 295.47 349.04C286.44 348.84 276.61 347.4 270.47 340.82L318.47 342.32C324.47 342.51 330.7 342.74 336.18 345.25C343.85 348.75 348.89 356.1 354.4 362.49C360.633 369.722 367.862 376.032 375.87 381.23C379 383.23 382.41 385.3 384.08 388.65C385.08 390.73 385.35 393.1 385.95 395.35C388.76 405.88 400.8 412.97 411.37 410.35" fill="black"/>
</g>
<path d="M383.53 391.5C383.507 391.662 383.507 391.827 383.53 391.99C383.542 392.452 383.603 392.911 383.71 393.36C384.121 395.014 384.746 396.608 385.57 398.1C386.772 400.323 388.258 402.38 389.99 404.22C392.091 406.52 394.701 408.297 397.61 409.41C400.517 410.47 403.537 411.188 406.61 411.55C409.43 411.93 411.98 412.09 414.12 412.17C416.26 412.25 417.99 412.26 419.18 412.24H420.56C420.72 412.257 420.881 412.257 421.04 412.24C420.428 412.15 419.809 412.11 419.19 412.12C417.99 412.07 416.26 412.01 414.13 411.89C412 411.77 409.47 411.56 406.68 411.16C403.656 410.77 400.684 410.046 397.82 409C394.981 407.925 392.426 406.215 390.35 404C388.629 402.19 387.138 400.175 385.91 398C385.067 396.549 384.396 395.006 383.91 393.4C383.55 392.17 383.59 391.5 383.53 391.5Z" fill="#263238"/>
<path d="M402.26 305.63C402.207 305.788 402.18 305.953 402.18 306.12C402.18 306.49 402.12 306.95 402.07 307.51C401.99 308.71 401.87 310.46 401.67 312.61C401.32 316.92 400.57 322.84 399.79 329.4C399.04 335.65 398.65 341.4 398.55 345.59L398.68 345.42C397.636 345.727 396.648 346.196 395.75 346.81C395.072 347.292 394.528 347.939 394.17 348.69C393.864 349.311 393.713 349.998 393.73 350.69C393.869 350.022 394.08 349.372 394.36 348.75C394.731 348.054 395.271 347.463 395.93 347.03C396.816 346.459 397.784 346.028 398.8 345.75H398.92V345.62C399.11 341.4 399.55 335.71 400.29 329.47C401.07 322.92 401.78 316.98 402.03 312.65C402.18 310.49 402.24 308.74 402.26 307.53C402.26 306.97 402.26 306.53 402.26 306.13C402.273 305.964 402.273 305.796 402.26 305.63Z" fill="#263238"/>
<path d="M256.66 377.18C256.673 377.087 256.673 376.993 256.66 376.9C256.66 376.68 256.66 376.41 256.6 376.07C256.53 375.31 256.43 374.24 256.31 372.89C256.19 371.54 256 369.83 255.88 367.89C255.76 365.95 255.52 363.7 255.44 361.22C255.36 358.74 255.16 356.04 255.15 353.13C255.15 351.68 255.09 350.13 255.1 348.62L255.17 343.85C255.347 336.756 255.901 329.676 256.83 322.64C257.818 315.616 259.194 308.652 260.95 301.78C261.38 300.2 261.8 298.66 262.2 297.16C262.6 295.66 263.09 294.24 263.51 292.85C264.33 290.06 265.26 287.51 266.07 285.17C266.46 284 266.87 282.89 267.28 281.86L268.41 278.92C269.1 277.07 269.77 275.52 270.31 274.24C270.85 272.96 271.23 272 271.53 271.3L271.83 270.52C271.875 270.436 271.906 270.344 271.92 270.25C271.866 270.329 271.819 270.413 271.78 270.5C271.69 270.7 271.58 270.94 271.43 271.25C271.12 271.95 270.68 272.93 270.12 274.16C269.56 275.39 268.85 276.97 268.12 278.81C267.76 279.72 267.37 280.7 266.95 281.74C266.53 282.78 266.11 283.87 265.7 285.05C264.87 287.38 263.92 289.92 263.08 292.72C262.65 294.11 262.16 295.54 261.74 297.04C261.32 298.54 260.9 300.04 260.47 301.66C258.681 308.544 257.289 315.526 256.3 322.57C255.366 329.621 254.822 336.719 254.67 343.83C254.67 345.47 254.67 347.07 254.62 348.62C254.57 350.17 254.68 351.68 254.7 353.14C254.7 356.06 254.92 358.77 255.05 361.24C255.18 363.71 255.42 365.95 255.57 367.91C255.72 369.87 255.92 371.56 256.09 372.91C256.26 374.26 256.38 375.32 256.47 376.08L256.59 376.9C256.598 376.997 256.621 377.091 256.66 377.18Z" fill="#263238"/>
<path d="M213 353.82C213.197 353.368 213.354 352.899 213.47 352.42C213.75 351.5 214.07 350.16 214.4 348.48C214.785 346.517 215.063 344.534 215.23 342.54C215.417 340.091 215.46 337.634 215.36 335.18C215.232 332.729 214.958 330.288 214.54 327.87C214.187 325.901 213.729 323.951 213.17 322.03C212.68 320.39 212.23 319.08 211.87 318.2C211.707 317.731 211.506 317.276 211.27 316.84C211.353 317.329 211.487 317.809 211.67 318.27C211.98 319.17 212.37 320.49 212.81 322.13C213.25 323.77 213.69 325.74 214.07 327.96C214.456 330.361 214.713 332.781 214.84 335.21C214.937 337.64 214.907 340.073 214.75 342.5C214.58 344.74 214.33 346.74 214.04 348.42C213.75 350.1 213.49 351.42 213.27 352.37C213.13 352.843 213.039 353.329 213 353.82Z" fill="#263238"/>
<path d="M178.8 338.58C179.113 338.313 179.395 338.011 179.64 337.68C180.16 337.08 180.87 336.17 181.64 335.01C185.874 328.899 188.545 321.843 189.42 314.46C189.58 313.06 189.65 311.91 189.66 311.12C189.709 310.711 189.709 310.299 189.66 309.89C189.57 309.89 189.5 311.63 189.09 314.42C188.027 321.693 185.392 328.648 181.37 334.8C179.84 337.16 178.73 338.52 178.8 338.58Z" fill="#263238"/>
<path d="M155 341.38C155.397 341.013 155.765 340.615 156.1 340.19C157.057 339.078 157.955 337.916 158.79 336.71C161.582 332.735 163.819 328.399 165.44 323.82C166.323 321.294 166.992 318.698 167.44 316.06C167.79 313.902 167.948 311.716 167.91 309.53C167.914 308.691 167.867 307.853 167.77 307.02C167.734 306.388 167.654 305.76 167.53 305.14C167.469 304.603 167.355 304.074 167.19 303.56C167.197 304.099 167.244 304.637 167.33 305.17C167.419 305.79 167.469 306.414 167.48 307.04C167.547 307.868 167.567 308.699 167.54 309.53C167.525 311.692 167.334 313.849 166.97 315.98C166.507 318.582 165.838 321.143 164.97 323.64C163.361 328.181 161.187 332.501 158.5 336.5C157.5 338.03 156.6 339.25 155.96 340.07C155.601 340.476 155.279 340.915 155 341.38Z" fill="#263238"/>
<path d="M299.66 243.33C299.714 243.571 299.784 243.808 299.87 244.04C300.037 244.54 300.267 245.207 300.56 246.04C301.15 247.77 302.02 250.27 302.97 253.39C305.474 261.515 307.408 269.806 308.76 278.2C309.38 282.04 309.85 285.76 310.19 289.2L310.25 289.82L310.63 289.33C315.96 282.54 320.36 276.89 322.99 273.46H322.82L325.91 275.33L326.72 275.8C326.808 275.861 326.906 275.905 327.01 275.93L326.76 275.74L325.98 275.21L322.98 273.21L322.88 273.14L322.81 273.24C320.09 276.59 315.63 282.19 310.27 288.96L310.71 289.09C310.38 285.61 309.92 281.88 309.3 278.02C307.935 269.603 305.93 261.302 303.3 253.19C302.3 250.08 301.38 247.6 300.73 245.89C300.41 245.07 300.15 244.43 299.95 243.89C299.866 243.697 299.769 243.51 299.66 243.33Z" fill="#263238"/>
<path d="M363 261.67C363 261.67 362.84 261.8 362.59 262.07L361.5 263.29C360.57 264.36 359.23 265.91 357.63 267.88C354.41 271.79 350.11 277.33 345.69 283.67C343.76 286.43 341.97 289.12 340.37 291.59H340.77L333.13 280.73L330.9 277.64C330.651 277.255 330.366 276.893 330.05 276.56C330.264 276.966 330.504 277.356 330.77 277.73L332.88 280.9C334.77 283.66 337.36 287.45 340.37 291.9L340.58 292.2L340.78 291.89C342.39 289.43 344.19 286.76 346.11 284C350.53 277.67 354.78 272.11 357.91 268.14L361.65 263.45L362.65 262.17C362.788 262.019 362.905 261.851 363 261.67Z" fill="#263238"/>
<path d="M273.51 439.19L273.68 439.3L274.21 439.6L275.08 440.08L275.64 440.39L276.31 440.66C279.052 441.758 281.896 442.582 284.8 443.12C292.23 444.6 302.91 445.53 315.37 445.52C337.152 442.933 358.343 436.692 378.05 427.06C383.646 424.402 389.07 421.396 394.29 418.06L393.99 418.21L393.15 418.67L389.94 420.5L384.81 423.29C382.81 424.29 380.49 425.53 377.89 426.74C358.174 436.204 337.041 442.372 315.33 445C302.91 445.05 292.24 444.19 284.83 442.79C281.938 442.285 279.099 441.511 276.35 440.48L275.67 440.23L275.1 439.94L274.22 439.5L273.67 439.24L273.51 439.19Z" fill="#263238"/>
<path d="M280.48 415.87L280.71 415.93L281.37 416.07L283.94 416.57C286.18 416.92 289.44 417.33 293.48 417.63C301.58 418.27 312.79 418.4 325.16 418.06C337.53 417.72 348.71 416.88 356.78 416.01C360.78 415.57 364.06 415.11 366.3 414.75L368.87 414.27L369.53 414.13C369.68 414.13 369.76 414.08 369.75 414.07H369.52L368.85 414.16L366.27 414.54C364.02 414.84 360.77 415.24 356.74 415.64C348.68 416.41 337.5 417.16 325.14 417.53C312.78 417.9 301.59 417.8 293.51 417.25C289.51 417 286.21 416.65 283.97 416.36L281.39 415.96L280.72 415.87C280.641 415.854 280.559 415.854 280.48 415.87Z" fill="#263238"/>
<path d="M312.3 445.28C312.38 445.28 311.84 443.78 311.3 441.34C310.581 438.153 310.166 434.905 310.06 431.64C309.906 428.383 310.148 425.119 310.78 421.92C311.109 420.607 311.507 419.312 311.97 418.04C311.749 418.351 311.565 418.687 311.42 419.04C311.003 419.951 310.668 420.899 310.42 421.87C309.666 425.089 309.366 428.398 309.53 431.7C309.632 434.999 310.102 438.275 310.93 441.47C311.08 442.08 311.26 442.63 311.41 443.1C311.56 443.57 311.71 443.99 311.85 444.32C311.959 444.658 312.11 444.98 312.3 445.28Z" fill="#263238"/>
<path d="M313.48 465.73C313.659 464.774 313.736 463.802 313.71 462.83C313.71 461.04 313.77 458.56 313.71 455.83C313.65 453.1 313.63 450.83 313.6 448.83C313.628 447.861 313.578 446.891 313.45 445.93C313.278 446.883 313.204 447.852 313.23 448.82C313.23 450.62 313.17 453.1 313.23 455.82C313.29 458.54 313.32 460.82 313.35 462.82C313.326 463.792 313.369 464.764 313.48 465.73Z" fill="#263238"/>
<path d="M399.1 346.52C399.506 346.592 399.919 346.615 400.33 346.59C401.12 346.59 402.26 346.59 403.67 346.67C411.014 346.971 418.264 348.432 425.15 351C426.47 351.48 427.54 351.9 428.27 352.2C428.641 352.381 429.03 352.522 429.43 352.62C429.096 352.376 428.734 352.175 428.35 352.02C427.64 351.66 426.6 351.19 425.28 350.65C418.408 347.889 411.085 346.425 403.68 346.33C402.26 346.33 401.11 346.33 400.32 346.42C399.911 346.412 399.502 346.446 399.1 346.52Z" fill="#263238"/>
<path d="M431.56 355.28C433.068 356.587 434.441 358.041 435.66 359.62C438.452 363.554 440.243 368.108 440.88 372.89C441.478 377.675 441.539 382.512 441.06 387.31C440.91 389.09 440.78 390.57 440.69 391.69C440.612 392.223 440.586 392.762 440.61 393.3C440.743 392.778 440.837 392.246 440.89 391.71C441.04 390.71 441.23 389.19 441.42 387.34C442.025 382.516 442.025 377.634 441.42 372.81C440.779 367.953 438.914 363.338 436 359.4C435.096 358.231 434.067 357.164 432.93 356.22C432.53 355.88 432.18 355.66 431.93 355.5C431.68 355.34 431.58 355.27 431.56 355.28Z" fill="#263238"/>
<path d="M369.51 324.84C369.35 324.84 369.1 327.95 367.87 331.57C366.64 335.19 364.99 337.86 365.13 337.94C365.618 337.455 366.021 336.89 366.32 336.27C367.137 334.831 367.807 333.313 368.32 331.74C368.85 330.169 369.215 328.547 369.41 326.9C369.56 326.224 369.594 325.527 369.51 324.84Z" fill="white"/>
<g opacity="0.3">
<path d="M375.87 330.71C372.593 331.932 369.004 332.038 365.66 331.01C365.66 332.52 365.59 334.01 365.55 335.56C357.481 333.211 350.508 328.076 345.87 321.068C341.231 314.061 339.229 305.635 340.22 297.29C339.63 298.6 337.7 298.8 336.48 298.02C335.339 297.126 334.504 295.899 334.09 294.51C332.04 289.307 330.848 283.805 330.56 278.22L340.65 291.48C344.378 285.307 348.979 279.706 354.31 274.85C359.163 293.653 365.786 311.955 374.09 329.51" fill="black"/>
</g>
<g opacity="0.3">
<path d="M212.08 318.22C219.44 328.329 222.883 340.765 221.77 353.22C221.734 354.28 221.472 355.32 221 356.27C220.755 356.739 220.381 357.129 219.922 357.393C219.464 357.656 218.939 357.784 218.41 357.76C217.09 357.59 216.27 356.24 215.88 354.98C214.88 351.73 215.34 348.24 215.56 344.84C216.124 335.633 214.653 326.414 211.25 317.84" fill="black"/>
</g>
<g opacity="0.3">
<path d="M160.49 333.31L159.69 334.94C158.92 335.42 158.69 336.66 158.13 337.34C157.796 337.674 157.37 337.9 156.907 337.989C156.443 338.078 155.964 338.026 155.53 337.84C155.111 337.605 154.765 337.259 154.53 336.84C151.827 332.713 149.962 328.096 149.04 323.25C153.373 325.965 157.24 329.362 160.49 333.31Z" fill="black"/>
</g>
<g opacity="0.3">
<path d="M189.09 315.55C189.282 322.231 188.02 328.875 185.39 335.02C182.712 341.19 177.952 346.223 171.94 349.24C178.72 339.17 186.62 329.37 189.09 315.55Z" fill="black"/>
</g>
<g opacity="0.3">
<path d="M363.27 433.5H363.17C363.79 432.96 364.41 432.42 365.01 431.86L363.27 433.5Z" fill="black"/>
</g>
<g opacity="0.3">
<path d="M363.17 433.54C351.309 443.869 336.501 450.207 320.84 451.659C305.179 453.111 289.458 449.602 275.9 441.63C305.077 448.764 335.802 445.915 363.17 433.54Z" fill="black"/>
</g>
<path d="M411.47 365.82C411.792 365.953 412.127 366.051 412.47 366.11C413.408 366.324 414.356 366.491 415.31 366.61C421.621 367.441 428.039 366.815 434.07 364.78C435.22 364.38 436.13 364.03 436.75 363.78C437.081 363.657 437.397 363.496 437.69 363.3C437.69 363.22 436.26 363.78 433.96 364.47C430.951 365.365 427.864 365.975 424.74 366.29C421.617 366.589 418.473 366.589 415.35 366.29C413 366 411.49 365.73 411.47 365.82Z" fill="white"/>
<path d="M410.84 374.9C411.209 375.085 411.598 375.226 412 375.32C412.76 375.56 413.88 375.84 415.27 376.13C422.591 377.578 430.16 377.148 437.27 374.88C438.62 374.44 439.7 374.03 440.43 373.71C440.817 373.564 441.189 373.38 441.54 373.16C441.54 373.07 439.88 373.74 437.16 374.53C430.069 376.582 422.606 377.002 415.33 375.76C412.56 375.29 410.87 374.81 410.84 374.9Z" fill="white"/>
<path d="M405.45 296.22C405.911 296.425 406.39 296.589 406.88 296.71L410.8 297.9C414.11 298.9 418.67 300.34 423.66 302.08C428.65 303.82 433.12 305.53 436.34 306.8L440.15 308.3C440.604 308.516 441.08 308.684 441.57 308.8C441.145 308.534 440.696 308.306 440.23 308.12C439.35 307.7 438.07 307.12 436.48 306.46C433.29 305.1 428.83 303.33 423.83 301.59C418.83 299.85 414.25 298.46 410.9 297.59C409.23 297.13 407.9 296.78 406.9 296.59C406.43 296.42 405.944 296.296 405.45 296.22Z" fill="white"/>
<path d="M402.09 312.36C402.09 312.5 411.15 314.29 422.37 316.36C433.59 318.43 442.72 320 442.74 319.81C442.76 319.62 433.69 317.89 422.46 315.81C411.23 313.73 402.12 312.22 402.09 312.36Z" fill="white"/>
<path d="M306.72 265.2C306.85 265.3 308.64 262.94 311.43 260.64C314.22 258.34 316.85 257.01 316.78 256.86C316.145 257.02 315.538 257.276 314.98 257.62C313.601 258.363 312.298 259.241 311.09 260.24C309.885 261.241 308.783 262.36 307.8 263.58C307.357 264.06 306.993 264.607 306.72 265.2Z" fill="white"/>
<path d="M303.95 260.2C304.08 260.29 305.72 258.08 308.19 255.78C310.66 253.48 312.96 251.97 312.87 251.84C311.005 252.721 309.312 253.926 307.87 255.4C306.283 256.749 304.955 258.375 303.95 260.2Z" fill="white"/>
<path d="M350.61 416.23C350.75 416.23 352.61 406.82 354.76 395.15C356.91 383.48 358.54 374 358.4 374C358.26 374 356.4 383.42 354.25 395.09C352.1 406.76 350.47 416.21 350.61 416.23Z" fill="white"/>
<path d="M338.16 417.3C338.242 417.132 338.303 416.954 338.34 416.77C338.44 416.37 338.58 415.86 338.74 415.24C339.08 413.91 339.55 411.98 340.1 409.59C341.19 404.8 342.59 398.16 343.91 390.78C345.23 383.4 346.22 376.68 346.85 371.78C347.16 369.34 347.4 367.37 347.53 366L347.68 364.43C347.704 364.244 347.704 364.056 347.68 363.87C347.616 364.047 347.576 364.232 347.56 364.42L347.31 365.98C347.1 367.41 346.81 369.35 346.46 371.73C345.74 376.58 344.69 383.28 343.38 390.66C342.07 398.04 340.72 404.66 339.72 409.48C339.22 411.82 338.82 413.75 338.52 415.17L338.22 416.72C338.172 416.909 338.152 417.105 338.16 417.3Z" fill="white"/>
<path d="M361.26 433.54C361.578 430.671 361.728 427.786 361.71 424.9C361.855 422.021 361.828 419.136 361.63 416.26C361.312 419.125 361.162 422.007 361.18 424.89C361.035 427.772 361.062 430.661 361.26 433.54Z" fill="white"/>
<path d="M351.89 436.89C352.218 435.916 352.446 434.911 352.57 433.89C353.4 429.057 353.665 424.144 353.36 419.25C353.347 418.24 353.226 417.234 353 416.25C352.932 417.249 352.932 418.251 353 419.25C353 421.12 353 423.7 352.87 426.55C352.74 429.4 352.44 431.96 352.21 433.82C352.029 434.834 351.922 435.86 351.89 436.89Z" fill="white"/>
<path d="M344.93 466.43C345.07 466.43 345.27 460.69 345.38 453.61C345.49 446.53 345.45 440.79 345.3 440.79C345.15 440.79 344.96 446.52 344.85 453.61C344.74 460.7 344.78 466.43 344.93 466.43Z" fill="white"/>
<path d="M334.36 464.76C334.5 464.76 334.7 459.76 334.79 453.62C334.88 447.48 334.85 442.46 334.71 442.46C334.57 442.46 334.37 447.46 334.27 453.61C334.17 459.76 334.21 464.76 334.36 464.76Z" fill="white"/>
<path d="M234.75 289.86C234.67 289.97 239.81 293.97 246.23 298.8C252.65 303.63 257.94 307.44 258.02 307.32C258.1 307.2 252.97 303.2 246.54 298.38C240.11 293.56 234.84 289.74 234.75 289.86Z" fill="white"/>
<path d="M238.14 282.56C238.05 282.68 243.25 286.56 249.75 291.32C256.25 296.08 261.59 299.78 261.68 299.66C261.77 299.54 256.56 295.66 250.06 290.9C243.56 286.14 238.22 282.44 238.14 282.56Z" fill="white"/>
<path d="M193.95 373.75C194.109 373.604 194.25 373.439 194.37 373.26L195.5 371.8L196.3 370.74C196.58 370.34 196.86 369.89 197.17 369.42C197.78 368.42 198.54 367.42 199.17 366.13L200.27 364.13C200.64 363.45 200.97 362.7 201.34 361.94C202.1 360.44 202.74 358.75 203.45 357C206.346 349.275 207.741 341.068 207.56 332.82C207.47 330.92 207.43 329.12 207.2 327.45C207.1 326.61 207.04 325.8 206.91 325.03C206.78 324.26 206.65 323.52 206.53 322.81C206.32 321.39 205.96 320.15 205.7 319.04C205.56 318.49 205.45 317.97 205.31 317.5C205.17 317.03 205.03 316.62 204.91 316.23C204.67 315.52 204.48 314.94 204.33 314.49C204.275 314.281 204.195 314.079 204.09 313.89C204.112 314.105 204.159 314.316 204.23 314.52C204.35 314.98 204.51 315.52 204.71 316.29L205.07 317.57C205.19 318.04 205.29 318.57 205.42 319.11C205.65 320.22 205.98 321.46 206.17 322.88C206.28 323.58 206.39 324.32 206.52 325.08C206.65 325.84 206.68 326.66 206.77 327.49C206.98 329.16 207 330.95 207.08 332.83C207.212 341.013 205.829 349.15 203 356.83C202.31 358.58 201.69 360.26 201 361.76C200.64 362.52 200.32 363.26 200 363.95L198.94 365.95C198.3 367.22 197.57 368.29 196.99 369.26C196.69 369.74 196.42 370.19 196.15 370.6L195.39 371.68L194.39 373.2C194.223 373.366 194.076 373.551 193.95 373.75Z" fill="white"/>
<path d="M182 364C182.149 363.876 182.283 363.735 182.4 363.58L183.48 362.34C183.95 361.8 184.48 361.12 185.11 360.34C185.74 359.56 186.44 358.61 187.11 357.53C187.78 356.45 188.61 355.3 189.36 353.99C190.11 352.68 190.89 351.27 191.68 349.76C195.003 343.156 197.261 336.069 198.37 328.76C198.6 327.08 198.84 325.48 198.93 323.97C199.02 322.46 199.12 321.07 199.15 319.78C199.18 318.49 199.15 317.34 199.15 316.32C199.15 315.3 199.07 314.43 199 313.71C198.93 312.99 198.88 312.5 198.84 312.07C198.834 311.877 198.804 311.685 198.75 311.5C198.733 311.693 198.733 311.887 198.75 312.08C198.75 312.51 198.75 313.08 198.81 313.72C198.87 314.36 198.88 315.31 198.86 316.33C198.84 317.35 198.86 318.5 198.81 319.77C198.76 321.04 198.7 322.44 198.53 323.93C198.36 325.42 198.17 327.02 197.93 328.69C196.772 335.925 194.53 342.944 191.28 349.51C190.5 351.01 189.79 352.45 189.01 353.73C188.23 355.01 187.53 356.22 186.83 357.28C186.13 358.34 185.46 359.28 184.88 360.12C184.3 360.96 183.77 361.65 183.32 362.21L182.32 363.52C182.15 363.83 182 364 182 364Z" fill="white"/>
<path d="M168.51 315.36C168.51 315.45 169.64 315.36 171.44 315.36C173.784 315.431 176.112 315.767 178.38 316.36C180.643 316.969 182.827 317.838 184.89 318.95C186.48 319.8 187.4 320.44 187.45 320.37C187.5 320.3 187.27 320.15 186.86 319.84C186.295 319.397 185.7 318.993 185.08 318.63C180.961 316.172 176.236 314.914 171.44 315C170.721 315.007 170.003 315.061 169.29 315.16C169.021 315.186 168.758 315.253 168.51 315.36Z" fill="white"/>
<path d="M166.86 325.52C166.86 325.6 167.86 325.44 169.54 325.34C173.844 325.059 178.159 325.679 182.21 327.16C183.76 327.72 184.7 328.16 184.73 328.09C184.004 327.551 183.202 327.123 182.35 326.82C180.334 325.969 178.216 325.381 176.05 325.07C173.883 324.761 171.685 324.727 169.51 324.97C168.605 325.027 167.713 325.212 166.86 325.52Z" fill="white"/>
<path d="M339.63 267.82C339.53 267.93 341.84 270.2 344.48 273.18C347.12 276.16 349.13 278.7 349.25 278.61C348.955 277.96 348.571 277.354 348.11 276.81C347.33 275.75 346.2 274.33 344.87 272.81C343.54 271.29 342.25 270.03 341.29 269.14C340.799 268.627 340.241 268.183 339.63 267.82Z" fill="white"/>
<path d="M343 262.65C344.363 264.342 345.857 265.924 347.47 267.38C348.97 268.952 350.588 270.406 352.31 271.73C350.947 270.038 349.453 268.456 347.84 267C346.34 265.428 344.722 263.974 343 262.65Z" fill="white"/>
<path d="M255.59 364.3C255.782 364.371 255.979 364.424 256.18 364.46L257.9 364.82C259.39 365.13 261.57 365.53 264.26 365.98C269.65 366.87 277.13 367.89 285.44 368.54C293.75 369.19 301.3 369.37 306.76 369.32C309.49 369.32 311.7 369.25 313.22 369.18L314.98 369.09C315.185 369.09 315.39 369.066 315.59 369.02C315.387 368.996 315.183 368.996 314.98 369.02H313.22C311.69 369.02 309.49 369.02 306.76 369.02C301.31 368.97 293.76 368.75 285.48 368.1C277.2 367.45 269.71 366.49 264.32 365.68C261.62 365.28 259.44 364.94 257.94 364.68L256.2 364.41C256.002 364.349 255.797 364.312 255.59 364.3Z" fill="white"/>
<path d="M255.17 373.33C255.36 373.405 255.558 373.459 255.76 373.49L257.48 373.85C258.98 374.16 261.15 374.56 263.85 375.01C269.23 375.91 276.71 376.92 285.02 377.58C293.33 378.24 300.88 378.4 306.34 378.36C309.07 378.36 311.28 378.28 312.81 378.21L314.56 378.12C314.766 378.121 314.97 378.097 315.17 378.05C314.967 378.031 314.763 378.031 314.56 378.05H312.8C311.28 378.05 309.07 378.05 306.34 378.05C300.89 378 293.34 377.77 285.06 377.12C276.78 376.47 269.3 375.51 263.9 374.71C261.21 374.31 259.03 373.96 257.52 373.71L255.78 373.45C255.583 373.383 255.378 373.343 255.17 373.33Z" fill="white"/>
<g opacity="0.3">
<path d="M251.57 374.33C246.07 361.63 245.75 346.43 248.57 332.89C251.39 319.35 256.96 306.56 262.49 293.89C254.66 322.36 255.04 341.58 255.58 367.89L251.57 374.33Z" fill="black"/>
</g>
<path d="M167.17 303.56L133.09 273.69L122.9 294.27L159.61 334.94C159.61 334.94 170.95 316.5 167.17 303.56Z" fill="#FFBE9D"/>
<path d="M90.82 270.44C90.82 270.44 94.18 267.68 101.24 269.99C108.3 272.3 112.73 269.64 115.63 268.78C118.817 267.934 122.176 267.989 125.334 268.937C128.492 269.884 131.326 271.689 133.52 274.15L122.9 294.27L88.45 295.77L60 294.71C59.6771 293.94 59.6429 293.079 59.9038 292.285C60.1646 291.491 60.703 290.819 61.42 290.39L55.42 288.69C55.42 288.69 55.42 283.26 61.89 283.69L60.42 280.57C60.42 280.57 64.24 276.14 67.94 281.22C67.94 281.22 71.56 278.22 76.85 283.04L82.53 284.52L96.23 279.66C96.23 279.66 84.93 276.27 90.82 270.44Z" fill="#FFBE9D"/>
<path d="M86.0802 288C86.6032 287.851 87.1146 287.664 87.6102 287.44L91.7002 285.76C95.1502 284.32 99.8902 282.3 105.12 280.03C107.75 278.91 110.21 277.75 112.54 277.03C114.588 276.321 116.76 276.042 118.92 276.21C120.376 276.331 121.79 276.757 123.07 277.46C123.96 277.97 124.39 278.37 124.42 278.34C124.45 278.31 124.33 278.22 124.13 278.02C123.819 277.745 123.485 277.497 123.13 277.28C121.853 276.49 120.414 275.998 118.92 275.84C116.707 275.617 114.471 275.866 112.36 276.57C109.97 277.3 107.5 278.45 104.88 279.57C99.6502 281.84 94.8802 283.92 91.5102 285.44L87.5102 287.28C87.0107 287.472 86.5316 287.713 86.0802 288Z" fill="#EB996E"/>
<path d="M80.4001 290.57C79.8054 290.012 79.1629 289.506 78.4802 289.06C77.2602 288.17 75.5902 286.94 73.7902 285.51C71.9902 284.08 70.4002 282.75 69.2602 281.78C68.6713 281.209 68.0283 280.696 67.3401 280.25C67.8262 280.912 68.3866 281.516 69.0102 282.05C70.1002 283.1 71.6602 284.49 73.4702 285.92C75.2802 287.35 77.0001 288.55 78.2701 289.37C78.9296 289.854 79.6447 290.257 80.4001 290.57Z" fill="#EB996E"/>
<path d="M71.7801 294.82C71.8901 294.7 69.2801 292.48 66.5701 289.26C63.8601 286.04 62.1001 283.11 61.9601 283.19C62.2006 283.899 62.5371 284.572 62.9601 285.19C63.9099 286.736 64.9763 288.207 66.1501 289.59C67.3182 290.976 68.5884 292.273 69.9501 293.47C70.4949 294.002 71.1107 294.457 71.7801 294.82Z" fill="#EB996E"/>
<path d="M401.29 354C400.55 354 334.47 323.45 334.47 323.45L323.79 343.32C323.79 343.32 377.79 392.06 389.43 394.05C401.07 396.04 414.43 394.24 414.43 381.82C414.43 369.4 401.29 354 401.29 354Z" fill="#FFBE9D"/>
<path d="M291.8 319.55C291.8 319.55 295.16 316.79 302.21 319.1C309.26 321.41 313.7 318.75 316.61 317.89C319.814 317.096 323.175 317.198 326.325 318.186C329.475 319.174 332.293 321.009 334.47 323.49L323.87 343.38L289.43 344.88L261 343.82C260.677 343.05 260.643 342.189 260.904 341.395C261.165 340.601 261.703 339.929 262.42 339.5L256.42 337.8C256.42 337.8 256.42 332.37 262.89 332.8L261.42 329.68C261.42 329.68 265.24 325.25 268.94 330.33C268.94 330.33 272.55 327.33 277.84 332.15L283.53 333.63L297.23 328.77C297.23 328.77 285.9 325.38 291.8 319.55Z" fill="#FFBE9D"/>
<path d="M297.29 328.81C298.108 329.013 298.948 329.107 299.79 329.09C301.35 329.17 303.5 329.14 305.87 329.09C308.24 329.04 310.37 328.96 311.87 328.95C312.708 328.994 313.549 328.957 314.38 328.84C313.555 328.665 312.714 328.577 311.87 328.58C310.32 328.5 308.17 328.49 305.8 328.58C303.43 328.67 301.3 328.75 299.8 328.76C298.963 328.71 298.124 328.726 297.29 328.81Z" fill="#EB996E"/>
<path d="M260.43 333.52C260.724 333.638 261.034 333.709 261.35 333.73C261.95 333.83 262.82 333.95 263.9 334.07C266.05 334.31 269.05 334.54 272.36 334.61C275.67 334.68 278.67 334.61 280.84 334.42C281.92 334.35 282.84 334.27 283.4 334.19C283.716 334.176 284.028 334.123 284.33 334.03C283.161 333.953 281.989 333.953 280.82 334.03C278.66 334.08 275.67 334.13 272.37 334.03C269.07 333.93 266.09 333.79 263.93 333.64C262.767 333.531 261.598 333.491 260.43 333.52Z" fill="#EB996E"/>
<path d="M290.26 140.47C292.05 124.87 303.4 106.19 318.91 108.64L367 123.43C369.274 123.79 371.33 124.988 372.763 126.79C374.195 128.591 374.901 130.864 374.74 133.16L360.95 245.47C358.37 247.78 327.9 275.6 327.9 275.6L309.81 242.48C309.81 242.48 310.61 222.65 310.59 222.78C310.57 222.91 290.76 218.44 287.95 192.14C286.54 179.05 288.28 157.81 290.26 140.47Z" fill="#FFBE9D"/>
<path d="M296.22 161C296.17 161.872 296.461 162.729 297.033 163.39C297.604 164.051 298.41 164.463 299.28 164.54C299.704 164.594 300.134 164.564 300.545 164.45C300.957 164.336 301.341 164.141 301.677 163.876C302.012 163.612 302.291 163.283 302.498 162.909C302.704 162.536 302.834 162.125 302.88 161.7C302.934 160.837 302.651 159.986 302.092 159.326C301.533 158.667 300.74 158.249 299.88 158.16C299.452 158.096 299.015 158.119 298.596 158.228C298.177 158.337 297.784 158.531 297.442 158.796C297.1 159.062 296.815 159.394 296.605 159.773C296.395 160.152 296.264 160.569 296.22 161Z" fill="#263238"/>
<path d="M294.63 153.88C295.02 154.34 297.63 152.59 301.26 152.78C304.89 152.97 307.4 154.91 307.82 154.49C308.02 154.3 307.64 153.49 306.53 152.6C305.024 151.441 303.198 150.774 301.3 150.69C299.428 150.59 297.572 151.087 296 152.11C294.85 152.9 294.44 153.67 294.63 153.88Z" fill="#263238"/>
<path d="M330.43 163.12C330.377 163.993 330.668 164.851 331.24 165.513C331.811 166.174 332.619 166.586 333.49 166.66C333.914 166.717 334.345 166.688 334.758 166.576C335.17 166.463 335.556 166.268 335.892 166.003C336.228 165.738 336.507 165.408 336.713 165.033C336.919 164.658 337.047 164.246 337.09 163.82C337.143 162.949 336.854 162.092 336.284 161.43C335.715 160.769 334.909 160.357 334.04 160.28C333.616 160.226 333.185 160.256 332.773 160.37C332.361 160.484 331.976 160.679 331.64 160.943C331.304 161.207 331.024 161.536 330.816 161.91C330.608 162.284 330.477 162.695 330.43 163.12Z" fill="#263238"/>
<path d="M330.52 155.81C330.91 156.27 333.52 154.52 337.14 154.72C340.76 154.92 343.29 156.84 343.7 156.42C343.9 156.24 343.53 155.42 342.41 154.53C340.907 153.373 339.085 152.706 337.19 152.62C335.318 152.52 333.462 153.017 331.89 154.04C330.74 154.84 330.32 155.61 330.52 155.81Z" fill="#263238"/>
<path d="M315.24 180.3C315.24 180.09 313.05 179.59 309.45 178.94C308.53 178.8 307.67 178.57 307.55 177.94C307.521 176.985 307.782 176.043 308.3 175.24L311.38 168.38C315.66 158.6 318.82 150.55 318.38 150.38C317.94 150.21 314.19 157.99 309.91 167.77C308.87 170.177 307.87 172.48 306.91 174.68C306.51 175.68 305.85 176.87 306.25 178.27C306.366 178.601 306.556 178.901 306.806 179.147C307.055 179.393 307.358 179.579 307.69 179.69C308.192 179.855 308.713 179.956 309.24 179.99C312.95 180.37 315.22 180.5 315.24 180.3Z" fill="#263238"/>
<path d="M310.58 222.78C322.856 223.596 335.118 220.99 346 215.25C346 215.25 336.27 232.74 310.28 228.96L310.58 222.78Z" fill="#EB996E"/>
<path d="M329 141.89C329.31 142.89 332.93 142.61 337.13 143.33C341.33 144.05 344.68 145.39 345.29 144.54C345.56 144.13 345.01 143.18 343.68 142.16C341.906 140.876 339.847 140.039 337.68 139.72C335.534 139.349 333.33 139.493 331.25 140.14C329.71 140.69 328.89 141.42 329 141.89Z" fill="#263238"/>
<path d="M295.12 141.6C295.71 142.45 298.23 141.73 301.22 141.84C304.21 141.95 306.7 142.67 307.33 141.84C307.6 141.43 307.25 140.59 306.18 139.76C304.743 138.757 303.041 138.203 301.289 138.169C299.537 138.135 297.814 138.623 296.34 139.57C295.25 140.36 294.86 141.19 295.12 141.6Z" fill="#263238"/>
<path d="M381.37 127.2C379.04 123.29 374.66 121.2 370.48 119.36C352.423 111.599 333.507 106.013 314.13 102.72C311.55 106.62 313.59 112.14 317.13 115.19C320.67 118.24 325.33 119.56 329.65 121.36C333.97 123.16 338.35 125.85 339.99 130.23C341.73 134.88 339.91 140.23 341.41 144.98C344.01 153.13 355.13 156.15 357.68 164.31C359.6 170.49 355.83 176.84 354.68 183.21C354.103 186.448 354.224 189.772 355.034 192.96C355.844 196.148 357.325 199.126 359.378 201.696C361.431 204.265 364.009 206.367 366.939 207.862C369.869 209.356 373.085 210.208 376.37 210.36C378.59 187.34 380.8 164.32 383 141.3C383.46 136.5 383.84 131.33 381.37 127.2Z" fill="#263238"/>
<path d="M313 191.41C313.446 193.002 314.12 194.521 315 195.92C315.446 196.612 316.032 197.202 316.722 197.652C317.411 198.102 318.187 198.401 319 198.53C319.882 198.576 320.762 198.398 321.557 198.014C322.353 197.629 323.038 197.05 323.55 196.33C324.56 194.862 325.078 193.111 325.03 191.33C325.03 189.74 324.4 187.8 322.83 187.54C322.166 187.487 321.499 187.6 320.89 187.87L312.43 190.87" fill="#EB996E"/>
<path d="M316 198.4C316.06 198.14 317.84 198.97 320.45 198.07C321.933 197.577 323.18 196.55 323.95 195.19C324.389 194.363 324.648 193.453 324.712 192.519C324.776 191.586 324.642 190.649 324.32 189.77C324.152 189.318 323.931 188.889 323.66 188.49C323.35 188.13 323.41 188.15 323.05 188.18C322.69 188.21 322.15 188.49 321.69 188.64L320.3 189.13C318.49 189.76 316.85 190.31 315.47 190.75C312.7 191.64 310.95 192.09 310.88 191.89C310.81 191.69 312.43 190.89 315.1 189.77C316.44 189.2 318.04 188.55 319.83 187.85L321.2 187.31C321.69 187.14 322.08 186.94 322.75 186.76C323.16 186.663 323.591 186.698 323.98 186.86C324.336 187.035 324.639 187.301 324.86 187.63C325.213 188.13 325.499 188.675 325.71 189.25C326.11 190.329 326.266 191.483 326.168 192.629C326.069 193.775 325.718 194.885 325.14 195.88C324.158 197.481 322.584 198.631 320.76 199.08C319.579 199.406 318.331 199.406 317.15 199.08C316.34 198.78 316 198.48 316 198.4Z" fill="#263238"/>
<path d="M357.15 180.21C353.15 184.44 354.07 191.21 355.98 196.65C357.89 202.09 360.62 207.72 359.55 213.41C357.92 222.02 348.08 227.66 347.55 236.41C347.02 245.16 356.38 252.32 356.17 261.19C356.06 266.12 353 270.4 350.87 274.85C348.74 279.3 347.7 285.14 351.07 288.75C355.27 293.25 362.98 290.84 367.64 286.81C377.18 278.59 381.36 265.51 381.64 252.93C381.92 240.35 378.64 227.99 375.54 215.79C372.44 203.59 369.43 191.14 370.15 178.57" fill="#263238"/>
<path d="M381.74 231.85C385.51 237.34 385.6 244.57 384.51 251.14C383.42 257.71 381.31 264.14 381.16 270.81C381 278.07 383.16 285.34 382.1 292.52C381.1 299.08 377.46 304.9 375.1 311.11C372.74 317.32 371.87 324.89 375.95 330.11C373.48 330.165 371.036 329.593 368.846 328.448C366.657 327.302 364.793 325.621 363.43 323.56C363.48 325.23 363.54 326.9 363.6 328.56C352.77 324.85 346.9 312.56 346.6 301.13C346.3 289.7 350.47 278.67 353.76 267.7C357.05 256.73 359.55 244.89 356.14 233.96" fill="#263238"/>
<path d="M312.77 107.43C312.77 107.43 312.85 107.19 312.98 106.72C313.144 106.034 313.372 105.364 313.66 104.72C314.755 102.16 316.499 99.9296 318.72 98.25C320.309 96.9978 322.093 96.0147 324 95.34C326.245 94.5484 328.624 94.2085 331 94.34C333.716 94.5027 336.332 95.4243 338.55 97C341.029 98.8141 343.1 101.127 344.63 103.79C346.316 106.726 347.835 109.754 349.18 112.86C350.639 116.254 352.435 119.494 354.54 122.53C355.728 124.092 357.068 125.532 358.54 126.83C360.02 128.15 361.62 129.37 363.25 130.58C366.52 132.99 370.04 135.29 373.05 138.3C374.597 139.79 375.891 141.523 376.88 143.43C377.129 143.913 377.349 144.411 377.54 144.92C377.758 145.419 377.925 145.938 378.04 146.47C378.196 146.996 378.323 147.53 378.42 148.07L378.62 149.71C378.93 154.16 377.62 158.64 376.09 163.01C375.34 165.21 374.5 167.41 373.77 169.68C372.98 171.959 372.385 174.301 371.99 176.68C371.796 177.884 371.683 179.1 371.65 180.32C371.652 181.552 371.749 182.783 371.94 184C372.385 186.442 373.138 188.817 374.18 191.07C376.18 195.62 378.81 199.79 380.38 204.32C381.188 206.547 381.624 208.891 381.67 211.26C381.656 213.589 381.247 215.898 380.46 218.09C378.96 222.48 376.46 226.34 374.13 230.18C372.95 232.1 371.85 234.03 370.84 236C369.852 237.95 369.042 239.985 368.42 242.08C367.412 246.183 367.323 250.458 368.16 254.6C368.83 258.6 369.84 262.44 370.45 266.2C370.753 268.036 370.94 269.89 371.01 271.75C371.043 273.543 370.903 275.334 370.59 277.1C369.946 280.421 368.985 283.672 367.72 286.81C366.56 289.81 365.35 292.68 364.38 295.44C363.423 298.038 362.696 300.715 362.21 303.44C361.799 305.815 361.731 308.236 362.01 310.63C362.273 312.641 362.861 314.597 363.75 316.42C364.934 318.976 366.839 321.131 369.23 322.62C369.588 322.845 369.962 323.042 370.35 323.21C370.622 323.345 370.903 323.462 371.19 323.56L371.9 323.78L371.21 323.51C370.925 323.408 370.647 323.284 370.38 323.14C369.997 322.968 369.629 322.764 369.28 322.53C366.939 321.019 365.082 318.867 363.93 316.33C363.073 314.52 362.506 312.586 362.25 310.6C361.999 308.23 362.083 305.836 362.5 303.49C362.995 300.791 363.728 298.14 364.69 295.57C365.69 292.83 366.89 289.99 368.06 286.96C369.35 283.805 370.331 280.534 370.99 277.19C371.306 275.398 371.45 273.58 371.42 271.76C371.362 269.88 371.182 268.006 370.88 266.15C370.27 262.37 369.27 258.54 368.61 254.55C367.791 250.474 367.883 246.267 368.88 242.23C369.494 240.161 370.298 238.152 371.28 236.23C372.28 234.28 373.38 232.36 374.55 230.45C376.85 226.61 379.41 222.73 380.95 218.26C381.753 216.013 382.169 213.646 382.18 211.26C382.139 208.837 381.696 206.438 380.87 204.16C379.27 199.56 376.65 195.37 374.66 190.87C373.64 188.657 372.897 186.326 372.45 183.93C372.262 182.743 372.169 181.542 372.17 180.34C372.198 179.143 372.311 177.95 372.51 176.77C372.89 174.423 373.476 172.114 374.26 169.87C374.99 167.62 375.82 165.42 376.58 163.21C378.1 158.82 379.43 154.28 379.12 149.71L378.91 148.02C378.811 147.463 378.681 146.912 378.52 146.37C378.398 145.821 378.224 145.285 378 144.77C377.804 144.247 377.577 143.736 377.32 143.24C376.305 141.288 374.977 139.514 373.39 137.99C370.32 134.99 366.78 132.64 363.52 130.24C361.89 129.04 360.3 127.83 358.84 126.53C357.401 125.252 356.091 123.835 354.93 122.3C352.83 119.294 351.037 116.085 349.58 112.72C348.218 109.603 346.683 106.565 344.98 103.62C343.414 100.927 341.302 98.5901 338.78 96.76C336.503 95.1162 333.804 94.1585 331 94C328.589 93.8877 326.179 94.2548 323.91 95.08C321.989 95.756 320.192 96.7424 318.59 98C316.367 99.7126 314.641 101.988 313.59 104.59C313.305 105.259 313.091 105.956 312.95 106.67C312.82 107.19 312.77 107.43 312.77 107.43Z" fill="white"/>
<path d="M43.7999 465.53C43.7999 465.67 136.13 465.79 249.99 465.79C363.85 465.79 456.2 465.67 456.2 465.53C456.2 465.39 363.89 465.27 249.99 465.27C136.09 465.27 43.7999 465.38 43.7999 465.53Z" fill="#263238"/>
<path d="M182.42 219.94L182.71 159.44L131.31 131.62V190.95L182.42 219.94Z" fill="#3A8EF6"/>
<g opacity="0.3">
<path d="M182.42 219.94L182.71 159.44L131.31 131.62V190.95L182.42 219.94Z" fill="black"/>
</g>
<path d="M117.59 127.42L118.38 187.21L66.1199 215.68V156.46L117.59 127.42Z" fill="#3A8EF6"/>
<g opacity="0.4">
<path d="M117.59 127.42L118.38 187.21L66.1199 215.68V156.46L117.59 127.42Z" fill="black"/>
</g>
<path d="M182.71 219.86L130.83 249.63L79.54 220.59L131.32 190.25L182.71 219.86Z" fill="#3A8EF6"/>
<g opacity="0.5">
<path d="M182.71 219.86L130.83 249.63L79.54 220.59L131.32 190.25L182.71 219.86Z" fill="black"/>
</g>
<path d="M130.83 249.63L131.13 189.13L79.7299 161.31V220.64L130.83 249.63Z" fill="#3A8EF6"/>
<path d="M181.62 127.38L129.74 157.14L78.4501 128.1L130.23 97.76L181.62 127.38Z" fill="#3A8EF6"/>
<path d="M129.31 248.77C129.31 248.77 129.02 248.58 128.44 248.24L125.85 246.74C123.56 245.42 120.22 243.5 115.93 241.05L79.8299 220.46L79.9299 220.64C79.9299 203.71 79.9299 183.44 79.9799 161.31L79.6099 161.54L107 176.4L131 189.4L130.86 189.17C130.77 211.65 130.68 232.26 130.61 249.67V250L130.93 249.82L168.67 228.06L179.07 222.06L181.78 220.47C182.4 220.1 182.7 219.9 182.7 219.9L181.75 220.41L179.01 221.95L168.55 227.89L130.72 249.49L131.03 249.67C131.13 232.26 131.25 211.67 131.37 189.18V189L131.24 188.93L107.24 175.93L79.7999 161.08L79.42 160.88V161.3C79.42 183.43 79.42 203.7 79.42 220.63V220.75L79.5299 220.81L115.72 241.24L125.72 246.83L128.34 248.28L129.31 248.77Z" fill="black"/>
<path d="M131.32 190.25C131.24 190.37 142.63 197.12 156.73 205.32C170.83 213.52 182.34 220.06 182.42 219.94C182.5 219.82 171.11 213.07 157 204.87C142.89 196.67 131.39 190.12 131.32 190.25Z" fill="black"/>
<path d="M197.25 136.66L198.04 196.45L145.78 224.92V165.7L197.25 136.66Z" fill="#3A8EF6"/>
<path d="M197.25 136.66L197.02 136.78L196.32 137.17L193.58 138.69L183.13 144.52L145.67 165.52L145.56 165.59V165.72C145.56 182.93 145.56 203.25 145.56 224.94V225.38L145.95 225.17L146.38 224.94L198.19 196.67L198.31 196.6V196.47C198.02 178.52 197.77 163.55 197.6 153.04C197.51 147.84 197.44 143.74 197.39 140.93C197.39 139.55 197.37 138.49 197.33 137.75C197.33 137.41 197.33 137.14 197.33 136.95C197.339 136.86 197.339 136.77 197.33 136.68V137.81C197.33 138.56 197.33 139.64 197.33 141.04C197.33 143.87 197.39 147.99 197.44 153.23C197.54 163.69 197.69 178.6 197.88 196.47L197.99 196.27L146.15 224.48L145.72 224.71L146.1 224.94C146.1 203.25 146.1 182.94 146.1 165.72L145.98 165.92L183.16 144.79L193.61 138.79L196.38 137.21L197.1 136.79C197.153 136.751 197.204 136.707 197.25 136.66Z" fill="#263238"/>
<path d="M207.76 202.31C207.9 202.31 208.02 187.95 208.02 170.25C208.02 152.55 207.9 138.18 207.76 138.18C207.62 138.18 207.5 152.53 207.5 170.25C207.5 187.97 207.61 202.31 207.76 202.31Z" fill="#263238"/>
<path d="M212.74 188.27C212.88 188.27 213 173.91 213 156.21C213 138.51 212.88 124.14 212.74 124.14C212.6 124.14 212.48 138.5 212.48 156.21C212.48 173.92 212.6 188.27 212.74 188.27Z" fill="#263238"/>
<path d="M125.31 85C125.456 85.1212 125.617 85.2221 125.79 85.3L127.19 86.04L132.41 88.73C136.81 90.98 142.89 94.11 149.57 97.63C156.25 101.15 162.28 104.38 166.63 106.73L171.8 109.51L173.21 110.25C173.369 110.347 173.541 110.421 173.72 110.47C173.577 110.349 173.423 110.242 173.26 110.15L171.9 109.33C170.7 108.63 168.97 107.63 166.81 106.41C162.5 103.98 156.5 100.68 149.81 97.17C143.12 93.66 137.01 90.57 132.56 88.4C130.34 87.31 128.56 86.4 127.27 85.86L125.82 85.2C125.656 85.1189 125.485 85.052 125.31 85Z" fill="#263238"/>
<path d="M137.9 88.12C138.046 88.2327 138.204 88.3299 138.37 88.41L139.78 89.16L145 91.84C149.41 94.1 155.49 97.22 162.17 100.74C168.85 104.26 174.88 107.5 179.23 109.85L184.39 112.62L185.81 113.36C185.968 113.458 186.14 113.532 186.32 113.58C186.178 113.461 186.024 113.357 185.86 113.27L184.49 112.45C183.3 111.74 181.56 110.74 179.41 109.52C175.1 107.09 169.1 103.8 162.41 100.28C155.72 96.76 149.62 93.68 145.17 91.51C142.94 90.42 141.17 89.51 139.88 88.98L138.43 88.31C138.263 88.2232 138.084 88.1593 137.9 88.12Z" fill="#263238"/>
<path d="M58.7901 225C58.9301 225 59.05 214 59.05 200.36C59.05 186.72 58.9301 175.72 58.7901 175.72C58.6501 175.72 58.5301 186.72 58.5301 200.36C58.5301 214 58.6401 225 58.7901 225Z" fill="#263238"/>
<path d="M54.3101 232.32C54.4501 232.32 54.5701 221.32 54.5701 207.69C54.5701 194.06 54.4501 183.05 54.3101 183.05C54.1701 183.05 54.05 194.05 54.05 207.69C54.05 221.33 54.1601 232.32 54.3101 232.32Z" fill="#263238"/>
<path d="M90.1599 237.17C90.0899 237.29 98.6399 242.55 109.25 248.91C119.86 255.27 128.53 260.33 128.6 260.21C128.67 260.09 120.13 254.83 109.52 248.47C98.9099 242.11 90.2399 237.05 90.1599 237.17Z" fill="#263238"/>
<path d="M92.9999 244.33C92.9199 244.45 101.47 249.71 112.08 256.07C122.69 262.43 131.36 267.49 131.44 267.37C131.52 267.25 123 262 112.39 255.63C101.78 249.26 93.1099 244.21 92.9999 244.33Z" fill="#263238"/>
</svg>
